{"title":"Shaolin.2011.720p.BRRip.x264.Feel-Free","uid":6193088,"size":1885812451,"categoryP":"video","categoryS":"hd___movies","magnet":"?xt=urn:btih:b3d6ac94b3a39b22417b2f1afa54408f517b5786&amp;dn=Shaolin.2011.720p.BRRip.x264.Feel-Free&amp;tr=udp%3A%2F%2Ftracker.openbittorrent.com%3A80&amp;tr=udp%3A%2F%2Fopen.demonii.com%3A1337&amp;tr=udp%3A%2F%2Ftracker.coppersurfer.tk%3A6969&amp;tr=udp%3A%2F%2Fexodus.desync.com%3A6969","seeders":0,"leechers":1,"uploader":".BONE.","files":11,"time":1298362242,"description":"\nGenre:Action | Drama\nLanguage:Mandarin\n &lt;a href=&quot;\nhttp://www.imdb.com/title/tt1533749/&quot; rel=&quot;nofollow&quot; target=&quot;_NEW&quot;&gt;\nhttp://www.imdb.com/title/tt1533749/&lt;/a&gt;\n\nSource:Bluray.720p.x264.-HDC\nSubtitles:English/Chinese.HS.sub\n\n\nFormat : MPEG-4\nFormat profile : Base Media\nCodec ID : isom\nFile size : 1.75 GiB\nDuration : 2h 10mn\nOverall bit rate : 1 918 Kbps\n\n\nVideo\nFormat profile : &lt;a class=&quot;__cf_email__&quot; href=&quot;/cdn-cgi/l/email-protection&quot; data-cfemail=&quot;da92b3bdb29a96eef4eb&quot;&gt;[email&amp;#160;protected]&lt;/a&gt;&lt;script cf-hash='f9e31' type=&quot;text/javascript&quot;&gt;\n/* &lt;![CDATA[ */!function(){try{var t=&quot;currentScript&quot;in document?document.currentScript:function(){for(var t=document.getElementsByTagName(&quot;script&quot;),e=t.length;e--;)if(t[e].getAttribute(&quot;cf-hash&quot;))return t[e]}();if(t&amp;&amp;t.previousSibling){var e,r,n,i,c=t.previousSibling,a=c.getAttribute(&quot;data-cfemail&quot;);if(a){for(e=&quot;&quot;,r=parseInt(a.substr(0,2),16),n=2;a.length-n;n+=2)i=parseInt(a.substr(n,2),16)^r,e+=String.fromCharCode(i);e=document.createTextNode(e),c.parentNode.replaceChild(e,c)}}}catch(u){}}();/* ]]&gt; */&lt;/script&gt;\nFormat settings, CABAC : Yes\nFormat settings, ReFrames : 3 frames\nCodec ID : avc1\nCodec ID/Info : Advanced Video Coding\nDuration : 2h 10mn\nBit rate mode : Variable\nBit rate : 1 489 Kbps\nMaximum bit rate : 13.6 Mbps\nWidth : 1 280 pixels\nHeight : 544 pixels\nDisplay aspect ratio : 2.35:1\nFrame rate mode : Constant\nFrame rate : 23.976 fps\nColor space : YUV\nChroma subsampling : 4:2:0\nBit depth : 8 bits\nScan type : Progressive\nBits/(Pixel*Frame) : 0.089\nStream size : 1.37 GiB (78%)\nWriting library : x264\n\n\nAudio\nID : 2\nFormat : AAC\nFormat/Info : Advanced Audio Codec\nFormat version : Version 4\nFormat profile : LC\nFormat settings, SBR : No\nCodec ID : 40\nDuration : 2h 10mn\nBit rate mode : Variable\nBit rate : 419 Kbps\nMaximum bit rate : 528 Kbps\nChannel(s) : 2 channels\nChannel positions : Front: L R\nSampling rate : 48.0 KHz\nStream size : 391 MiB (22%)\n\n\nPlot:\nChina is plunged into strife as feuding warlords try to expand their power by warring over neighboring lands\n &lt;a href=&quot;\nhttp://www.postimg.com/29000/28609.jpg&quot; rel=&quot;nofollow&quot; target=&quot;_NEW&quot;&gt;\nhttp://www.postimg.com/29000/28609.jpg&lt;/a&gt;\n &lt;a href=&quot;\nhttp://www.postimg.com/29000/28606.jpg&quot; rel=&quot;nofollow&quot; target=&quot;_NEW&quot;&gt;\nhttp://www.postimg.com/29000/28606.jpg&lt;/a&gt;\n &lt;a href=&quot;\nhttp://www.postimg.com/29000/28610.jpg&quot; rel=&quot;nofollow&quot; target=&quot;_NEW&quot;&gt;\nhttp://www.postimg.com/29000/28610.jpg&lt;/a&gt;\n &lt;a href=&quot;\nhttp://www.postimg.com/29000/28608.jpg&quot; rel=&quot;nofollow&quot; target=&quot;_NEW&quot;&gt;\nhttp://www.postimg.com/29000/28608.jpg&lt;/a&gt;\n &lt;a href=&quot;\nhttp://www.postimg.com/29000/28607.jpg&quot; rel=&quot;nofollow&quot; target=&quot;_NEW&quot;&gt;\nhttp://www.postimg.com/29000/28607.jpg&lt;/a&gt;\n &lt;a href=&quot;\nhttp://www.postimg.com/29000/28605.jpg&quot; rel=&quot;nofollow&quot; target=&quot;_NEW&quot;&gt;\nhttp://www.postimg.com/29000/28605.jpg&lt;/a&gt;","torrent":{"xt":"urn:btih:b3d6ac94b3a39b22417b2f1afa54408f517b5786","amp;dn":"Shaolin.2011.720p.BRRip.x264.Feel-Free","amp;tr":["udp%3A%2F%2Ftracker.openbittorrent.com%3A80","udp%3A%2F%2Fopen.demonii.com%3A1337","udp%3A%2F%2Ftracker.coppersurfer.tk%3A6969","udp%3A%2F%2Fexodus.desync.com%3A6969"],"infoHash":"b3d6ac94b3a39b22417b2f1afa54408f517b5786","infoHashBuffer":{"type":"Buffer","data":[179,214,172,148,179,163,155,34,65,123,47,26,250,84,64,143,81,123,87,134]},"announce":[],"urlList":[]}}